<svg width="24" height="25" viewBox="0 0 24 25" fill="none" xmlns="http://www.w3.org/2000/svg">
<path d="M2 8.5C2 8.5 6.47715 3.5 12 3.5C17.5228 3.5 22 8.5 22 8.5" stroke="#494949" stroke-width="1.5" stroke-linecap="round"/>
<path d="M21.544 13.545C21.848 13.9713 22 14.1845 22 14.5C22 14.8155 21.848 15.0287 21.544 15.455C20.1779 17.3706 16.6892 21.5 12 21.5C7.31078 21.5 3.8221 17.3706 2.45604 15.455C2.15201 15.0287 2 14.8155 2 14.5C2 14.1845 2.15201 13.9713 2.45604 13.545C3.8221 11.6294 7.31078 7.5 12 7.5C16.6892 7.5 20.1779 11.6294 21.544 13.545Z" stroke="#494949" stroke-width="1.5"/>
<path d="M15 14.5C15 12.8431 13.6569 11.5 12 11.5C10.3431 11.5 9 12.8431 9 14.5C9 16.1569 10.3431 17.5 12 17.5C13.6569 17.5 15 16.1569 15 14.5Z" stroke="#494949" stroke-width="1.5"/>
</svg>
