<svg width="36" height="24" viewBox="0 0 36 24" fill="none" xmlns="http://www.w3.org/2000/svg">
<rect width="36" height="24" rx="4" fill="#F3F3F3"/>
<path d="M17.9999 18.6666C21.6818 18.6666 24.6666 15.6819 24.6666 12C24.6666 8.31808 21.6818 5.33331 17.9999 5.33331C14.318 5.33331 11.3333 8.31808 11.3333 12C11.3333 15.6819 14.318 18.6666 17.9999 18.6666Z" stroke="#B1B1B1" stroke-linecap="round" stroke-linejoin="round"/>
<path d="M15.3332 6H15.9999C14.6999 9.89333 14.6999 14.1067 15.9999 18H15.3332" stroke="#B1B1B1" stroke-linecap="round" stroke-linejoin="round"/>
<path d="M20 6C21.3 9.89333 21.3 14.1067 20 18" stroke="#B1B1B1" stroke-linecap="round" stroke-linejoin="round"/>
<path d="M12 14.6667V14C15.8933 15.3 20.1067 15.3 24 14V14.6667" stroke="#B1B1B1" stroke-linecap="round" stroke-linejoin="round"/>
<path d="M12 10C15.8933 8.70002 20.1067 8.70002 24 10" stroke="#B1B1B1" stroke-linecap="round" stroke-linejoin="round"/>
</svg>
