<svg width="24" height="24" viewBox="0 0 24 24" fill="none" xmlns="http://www.w3.org/2000/svg">
<path d="M18.2913 0.534521C18.2913 0.855234 18.5368 1.06904 18.9051 1.06904H21.9743L16.2042 6.04009C14.1785 4.59688 11.4162 4.43653 9.2064 5.55902C8.10148 4.97105 6.75103 4.70379 5.33919 4.86414C2.63828 5.18485 0.428452 7.05568 0.0601466 9.40757C-0.430927 12.5078 2.14721 15.1804 5.52334 15.4477V19.7238H3.06798C2.69967 19.7238 2.45413 19.9376 2.45413 20.2584C2.45413 20.5791 2.69967 20.7929 3.06798 20.7929H5.52334V23.4655C5.52334 23.7862 5.76888 24 6.13719 24C6.50549 24 6.75103 23.7862 6.75103 23.4655V20.7929H9.2064C9.5747 20.7929 9.82024 20.5791 9.82024 20.2584C9.82024 19.9376 9.5747 19.7238 9.2064 19.7238H6.75103V15.4477C7.67179 15.3942 8.46979 15.1269 9.2064 14.7528C11.539 15.9287 14.6082 15.6615 16.5725 13.951C18.8437 12.0267 18.9665 8.87305 17.0022 6.78842L22.7723 1.81737V4.48998C22.7723 4.81069 23.0179 5.0245 23.3862 5.0245C23.7545 5.0245 24 4.81069 24 4.48998V0.534521C24 0.213808 23.7545 0 23.3862 0H18.8437C18.5368 0 18.2913 0.213808 18.2913 0.534521ZM6.13719 14.4321C3.43628 14.4321 1.22645 12.5078 1.22645 10.1559C1.22645 7.80401 3.43628 5.87973 6.13719 5.87973C6.81241 5.87973 7.48764 5.98664 8.10148 6.2539C8.0401 6.30735 7.97871 6.30735 7.97871 6.3608C5.58473 8.44544 5.52334 11.8129 7.91733 13.8976C7.97871 13.951 8.0401 14.0045 8.10148 14.0579C7.48764 14.3252 6.81241 14.4321 6.13719 14.4321ZM11.0479 10.1559C11.0479 11.4922 10.3113 12.7216 9.2064 13.4699C9.08363 13.363 8.89948 13.2561 8.77671 13.1492C6.8738 11.4922 6.8738 8.76615 8.83809 7.10913C8.96086 7.00223 9.08363 6.89532 9.2064 6.84187C10.3113 7.64365 11.0479 8.8196 11.0479 10.1559ZM15.7745 13.2027C14.3013 14.4855 12.1528 14.7528 10.3727 14.0579C11.6004 13.0958 12.337 11.706 12.337 10.1559C12.337 8.60579 11.6004 7.21604 10.3727 6.2539C12.1528 5.55902 14.3627 5.87973 15.8359 7.16258C17.6774 8.8196 17.6774 11.5457 15.7745 13.2027Z" fill="#B1B1B1"/>
</svg>
